<svg xmlns="http://www.w3.org/2000/svg" viewBox="0 0 800 400" width="800" height="400">
  <defs>
    <path id="hill" d="M0 320 Q100 300 200 310 Q350 295 400 305 Q550 290 600 308 Q700 300 800 310 L800 400 L0 400 Z" fill="#047857"/>
  </defs>
  <rect width="800" height="400" fill="#fff"/>
  <use href="#hill"/>
  <!-- Arbre gauche : feuillage dense #10b981 -->
  <ellipse cx="140" cy="280" rx="55" ry="75" fill="#10b981"/>
  <ellipse cx="155" cy="230" rx="45" ry="58" fill="#10b981"/>
  <ellipse cx="135" cy="190" rx="40" ry="50" fill="#10b981"/>
  <!-- Arbre central : plus imposant #059669, tronc -->
  <rect x="385" y="260" width="30" height="140" fill="#047857" rx="2"/>
  <ellipse cx="400" cy="200" rx="90" ry="100" fill="#059669"/>
  <ellipse cx="400" cy="140" rx="75" ry="85" fill="#059669"/>
  <ellipse cx="400" cy="85" rx="55" ry="65" fill="#059669"/>
  <!-- Arbre droit : #047857 -->
  <ellipse cx="660" cy="280" rx="55" ry="75" fill="#047857"/>
  <ellipse cx="645" cy="230" rx="45" ry="58" fill="#047857"/>
  <ellipse cx="665" cy="190" rx="40" ry="50" fill="#047857"/>
  <text x="400" y="52" text-anchor="middle" font-family="Inter, Arial, sans-serif" font-size="28" font-weight="700" fill="#000" letter-spacing="0.06em">ENERGIA-CONSEIL IA</text>
</svg>
